<?xml version="1.0" encoding="iso-8859-1"?>
<!-- Generator: Adobe Illustrator 19.0.0, SVG Export Plug-In . SVG Version: 6.00 Build 0)  -->
<svg xmlns="http://www.w3.org/2000/svg" xmlns:xlink="http://www.w3.org/1999/xlink" version="1.1" id="Layer_1" x="0px" y="0px" viewBox="0 0 512 512" style="enable-background:new 0 0 512 512;" xml:space="preserve" width="512px" height="512px">
<g>
	<g>
		<path d="M375.737,146.781V38.873L134.462,126.61H0v152.897h34.126l15.425,193.62h120.55l-14.823-186.05l220.458,80.167V259.335    c25.767-5.762,45.088-28.798,45.088-56.277C420.825,175.579,401.503,152.543,375.737,146.781z M31.347,248.16v-90.203h90.202    v90.203H31.347z M78.5,441.78L65.573,279.507h57.656l12.927,162.273H78.5z M344.39,322.488l-191.494-69.633v-99.593L344.39,83.627    V322.488z M375.737,226.178v-46.24c8.181,4.472,13.741,13.158,13.741,23.119C389.478,213.019,383.917,221.706,375.737,226.178z" fill="#FFFFFF"/>
	</g>
</g>
<g>
	<g>
		<rect x="451.229" y="187.382" width="60.771" height="31.347" fill="#FFFFFF"/>
	</g>
</g>
<g>
	<g>
		<rect x="435.31" y="77.131" transform="matrix(0.9285 -0.3714 0.3714 0.9285 -1.1586 179.593)" width="60.773" height="31.348" fill="#FFFFFF"/>
	</g>
</g>
<g>
	<g>
		
			<rect x="449.998" y="282.918" transform="matrix(0.3714 -0.9285 0.9285 0.3714 1.8298 629.3111)" width="31.348" height="60.773" fill="#FFFFFF"/>
	</g>
</g>
<g>
</g>
<g>
</g>
<g>
</g>
<g>
</g>
<g>
</g>
<g>
</g>
<g>
</g>
<g>
</g>
<g>
</g>
<g>
</g>
<g>
</g>
<g>
</g>
<g>
</g>
<g>
</g>
<g>
</g>
</svg>
