<?xml version="1.0" encoding="iso-8859-1"?>
<!-- Generator: Adobe Illustrator 19.0.0, SVG Export Plug-In . SVG Version: 6.00 Build 0)  -->
<svg xmlns="http://www.w3.org/2000/svg" xmlns:xlink="http://www.w3.org/1999/xlink" version="1.1" id="Capa_1" x="0px" y="0px" viewBox="0 0 512 512" style="enable-background:new 0 0 512 512;" xml:space="preserve" width="512px" height="512px">
<g>
	<g>
		<path d="M253.814,158.155c-31.051,0-45.312,18.409-45.312,30.836c0,8.975,7.59,13.117,13.8,13.117    c12.421,0,7.361-17.719,30.822-17.719c11.5,0,20.701,5.062,20.701,15.648c0,12.427-12.881,19.561-20.472,26.004    c-6.67,5.753-15.41,15.188-15.41,34.978c0,11.966,3.22,15.418,12.65,15.418c11.271,0,13.57-5.062,13.57-9.435    c0-11.966,0.23-18.87,12.881-28.765c6.21-4.832,25.761-20.481,25.761-42.112C302.807,174.493,283.256,158.155,253.814,158.155z" fill="#FFFFFF"/>
	</g>
</g>
<g>
	<g>
		<path d="M250.824,292.316c-9.66,0-17.48,8.054-17.48,17.72c0,9.435,7.591,17.719,17.48,17.719c9.891,0,17.711-8.284,17.711-17.719    C268.535,300.37,260.485,292.316,250.824,292.316z" fill="#FFFFFF"/>
	</g>
</g>
<g>
	<g>
		<path d="M256,0C122.242,0,14,108.286,14,242.105c0,64.153,24.944,122.439,65.476,165.602L29.42,489.085    c-7.811,12.698,5.806,27.797,19.234,21.395l103.793-49.493c32.44,15.415,67.237,23.223,103.553,23.223    c133.758,0,242-108.286,242-242.105C498,108.355,389.835,0,256,0z M256,454.214c-34.032,0-66.53-7.82-96.591-23.242    c-4.162-2.135-9.082-2.207-13.305-0.193l-64.526,30.769l29.61-48.139c3.689-5.998,2.708-13.756-2.359-18.647    C67.023,354.406,44,300.192,44,242.105c0-116.957,95.103-212.109,212-212.109s212,95.152,212,212.109S372.897,454.214,256,454.214    z" fill="#FFFFFF"/>
	</g>
</g>
<g>
</g>
<g>
</g>
<g>
</g>
<g>
</g>
<g>
</g>
<g>
</g>
<g>
</g>
<g>
</g>
<g>
</g>
<g>
</g>
<g>
</g>
<g>
</g>
<g>
</g>
<g>
</g>
<g>
</g>
</svg>
